<?xml version="1.0" encoding="utf-8"?>
<svg xmlns="http://www.w3.org/2000/svg" viewBox="0 0 50 50" fill="#000000"><path d="M 20 3 L 20 5.5292969 C 19.898144 5.4782785 19.822376 5.4433594 19.712891 5.3867188 C 19.222891 5.1347188 18.671187 5 18.117188 5 C 16.187188 5 14.617188 6.57 14.617188 8.5 C 14.617188 8.5904084 14.630031 8.6785931 14.636719 8.7675781 C 14.588115 8.7655169 14.540893 8.75 14.492188 8.75 C 12.566187 8.75 11 10.32 11 12.25 C 11 12.715634 11.094536 13.16203 11.261719 13.574219 C 9.9437164 14.075326 9 15.343617 9 16.837891 C 9 17.62571 9.2621606 18.360947 9.7167969 18.957031 C 8.6934523 19.568587 8 20.676961 8 21.953125 C 8 23.245112 8.6975163 24.400887 9.8222656 25.015625 L 9.1933594 25.626953 C 8.4463594 26.284953 8 27.295078 8 28.330078 C 8 29.846565 8.9745422 31.128306 10.326172 31.613281 L 10.224609 31.712891 C 9.4466094 32.378891 9 33.348094 9 34.371094 C 9 36.152744 10.342444 37.61192 12.066406 37.828125 C 12.029968 38.026082 12 38.22527 12 38.421875 C 12 40.351875 13.57 41.921875 15.5 41.921875 C 15.688802 41.921875 15.86578 41.90413 16.037109 41.876953 C 16.227862 43.628054 17.698962 45 19.5 45 C 19.669943 45 19.834911 44.974748 20 44.951172 L 20 47 L 22 47 L 22 43.945312 C 22.016387 43.928437 22.022147 43.906376 22.037109 43.888672 C 22.56327 43.382304 26.289485 39.78807 29.503906 36.304688 C 30.424906 35.306688 32.007078 33.573203 32.955078 32.533203 C 33.628078 31.795203 34 30.837891 34 29.837891 L 34 27 C 34 26.316 33.655125 25.688266 33.078125 25.322266 L 28.943359 22.689453 C 28.242359 22.249453 27.893297 21.469344 28.029297 20.652344 C 28.156297 19.890344 28.781781 19.231734 29.550781 19.052734 C 30.055781 18.933734 30.547297 19.013828 31.029297 19.298828 L 35.558594 21.84375 C 36.767594 22.48175 37.753156 23.445859 38.410156 24.630859 C 39.583156 26.747859 40 29.385 40 31 C 40 33.124 38.312078 36.78075 36.955078 39.71875 C 35.707078 42.42275 35 44 35 45 L 35 47 L 37 47 L 37 45 C 37 44.391 37.982484 42.265641 38.771484 40.556641 C 40.284484 37.278641 42 33.563 42 31 C 42 29.526023 41.718371 27.474106 40.992188 25.5 L 41 25.5 L 41 20 C 41 19.403 40.960672 18.818 40.888672 18.25 C 40.571672 15.714 39.639828 13.48925 38.923828 11.78125 C 38.448828 10.64625 38 9.574 38 9 L 38 3 L 36 3 L 36 9 C 36 9.976 36.477078 11.112734 37.080078 12.552734 C 37.935078 14.595734 39 17.138 39 20 L 39 22.060547 C 38.291771 21.265045 37.462222 20.584895 36.515625 20.085938 L 32.027344 17.564453 C 31.120344 17.028453 30.106656 16.869469 29.097656 17.105469 C 27.538656 17.468469 26.316641 18.761266 26.056641 20.322266 C 25.788641 21.926266 26.505 23.520859 27.875 24.380859 L 32 27 L 32 29.837891 C 32 30.337891 31.815516 30.815547 31.478516 31.185547 C 30.532516 32.222547 28.952203 33.951266 28.033203 34.947266 C 24.695954 38.564261 20.565721 42.533024 20.400391 42.693359 C 20.141876 42.889195 19.830471 43 19.5 43 C 18.673 43 18 42.327 18 41.5 C 18 41.211 18.10425 40.887953 18.28125 40.626953 L 23.259766 35.712891 C 23.652766 35.324891 23.657531 34.691828 23.269531 34.298828 C 22.881531 33.904828 22.249469 33.899109 21.855469 34.287109 L 16.882812 39.195312 C 16.874638 39.203039 16.863441 39.204837 16.855469 39.212891 C 16.236469 39.837891 15.823 39.921875 15.5 39.921875 C 14.673 39.921875 14 39.248875 14 38.421875 C 14 37.994875 14.231375 37.505578 14.609375 37.142578 L 14.914062 36.845703 C 14.915145 36.844661 14.914938 36.842843 14.916016 36.841797 L 18.111328 33.71875 C 18.505328 33.33175 18.514906 32.699688 18.128906 32.304688 C 17.741906 31.910688 17.108891 31.902109 16.712891 32.287109 L 13.492188 35.435547 C 13.167079 35.738477 12.867674 35.871094 12.5 35.871094 C 11.673 35.871094 11 35.198094 11 34.371094 C 11 33.932094 11.191125 33.517594 11.578125 33.183594 L 14.017578 30.769531 C 14.025496 30.761759 14.035124 30.755892 14.042969 30.748047 C 14.046445 30.74457 14.047366 30.739843 14.050781 30.736328 L 14.076172 30.710938 C 14.468172 30.321938 14.470031 29.689875 14.082031 29.296875 C 13.693031 28.905875 13.060969 28.901062 12.667969 29.289062 L 12.59375 29.361328 C 12.296871 29.641408 11.864937 29.830078 11.5 29.830078 C 10.673 29.830078 10 29.157078 10 28.330078 C 10 27.875078 10.202781 27.404656 10.550781 27.097656 L 11.701172 25.982422 C 11.836484 26.048085 11.995401 26.137667 12.109375 26.1875 C 12.550375 26.3795 13.017047 26.476562 13.498047 26.476562 C 15.429047 26.476563 17 24.905562 17 22.976562 C 17 22.771068 16.977385 22.570339 16.943359 22.373047 C 18.662248 22.155427 20 20.698522 20 18.917969 C 20 18.452705 19.905687 18.006119 19.738281 17.59375 C 21.056284 17.092412 22 15.823577 22 14.330078 C 22 13.532549 21.731273 12.788124 21.265625 12.1875 C 22.297792 11.578145 23 10.466606 23 9.1835938 C 23 8.2467902 22.629666 7.3843723 22 6.7421875 L 22 3 L 20 3 z M 18.117188 7 C 18.356188 7 18.584922 7.0541094 18.794922 7.1621094 C 19.189922 7.3661094 19.537125 7.5357813 19.828125 7.6757812 L 20.162109 7.8378906 C 20.678109 8.0928906 21 8.6085938 21 9.1835938 C 21 10.010594 20.327 10.683594 19.5 10.683594 C 19.294 10.683594 19.095156 10.6435 18.910156 10.5625 C 18.489156 10.3795 18.110453 10.182297 17.814453 10.029297 L 17.457031 9.8476562 C 16.938031 9.5926562 16.617188 9.077 16.617188 8.5 C 16.617188 7.673 17.290187 7 18.117188 7 z M 14.492188 10.75 C 14.730188 10.75 14.956063 10.804109 15.164062 10.912109 L 15.808594 11.246094 C 16.911594 11.819094 18.900063 12.851422 19.164062 12.982422 C 19.678062 13.237422 19.998047 13.754078 19.998047 14.330078 C 19.998047 15.157078 19.328859 15.830078 18.505859 15.830078 C 18.301859 15.830078 18.104922 15.788031 17.919922 15.707031 C 17.804043 15.656243 17.304303 15.38798 17.017578 15.242188 C 16.27783 14.859716 15.482431 14.448679 14.730469 14.058594 L 14.085938 13.724609 C 14.080449 13.721764 14.073864 13.721566 14.068359 13.71875 C 14.015578 13.69146 13.862356 13.609772 13.837891 13.597656 C 13.320891 13.343656 13 12.828 13 12.25 C 13 11.423 13.669187 10.75 14.492188 10.75 z M 12.492188 15.337891 C 12.722995 15.337891 12.942809 15.391472 13.146484 15.492188 C 13.307154 15.575496 13.517169 15.685545 13.896484 15.884766 C 14.329143 16.112402 14.464024 16.172258 14.855469 16.376953 C 15.819864 16.877163 16.982425 17.480182 17.164062 17.570312 C 17.678063 17.825313 17.998047 18.341969 17.998047 18.917969 C 17.998047 19.744969 17.328859 20.417969 16.505859 20.417969 C 16.301859 20.417969 16.104922 20.377875 15.919922 20.296875 C 15.827402 20.256325 15.406939 20.030319 15.199219 19.925781 C 15.148298 19.897427 15.101519 19.863951 15.048828 19.837891 C 14.718828 19.673891 13.647703 19.124844 13.095703 18.839844 C 13.093125 18.838515 13.090472 18.837259 13.087891 18.835938 C 12.994954 18.78708 12.91267 18.747578 12.828125 18.703125 C 12.328125 18.439125 11.942891 18.237547 11.837891 18.185547 C 11.320891 17.931547 11 17.415891 11 16.837891 C 11 16.010891 11.669187 15.337891 12.492188 15.337891 z M 11.501953 20.453125 C 11.741953 20.453125 11.968734 20.508188 12.177734 20.617188 C 12.177734 20.617188 12.179688 20.617188 12.179688 20.617188 C 13.0711 21.085805 13.637637 21.371639 14.191406 21.650391 C 14.688624 21.910647 15 22.413557 15 22.976562 C 15 23.803562 14.326047 24.476562 13.498047 24.476562 C 13.292047 24.476563 13.094203 24.436469 12.908203 24.355469 C 12.517203 24.184469 11.867578 23.838891 11.392578 23.587891 C 11.152578 23.460891 10.953797 23.355781 10.841797 23.300781 C 10.322797 23.045781 10 22.530125 10 21.953125 C 10 21.126125 10.673953 20.453125 11.501953 20.453125 z" fill="#000000"/></svg>
