<?xml version="1.0"?>
<svg xmlns="http://www.w3.org/2000/svg" viewBox="0 0 64 64">
    <path d="M 19 0.056640625 C 18.448 0.056640625 18 0.50464062 18 1.0566406 L 18 10 L 9 10 C 7.346 10 6 11.346 6 13 C 6 14.134 6.6393125 15.112094 7.5703125 15.621094 L 2.3945312 25.974609 C 1.4305313 27.902609 1.8080313 30.221141 3.3320312 31.744141 L 3.6132812 32.027344 C 4.3062813 32.722344 5.127 33.2215 6 33.5625 L 6 56 L 3 56 C 2.448 56 2 56.448 2 57 C 2 57.552 2.448 58 3 58 L 6 58 L 58 58 L 61 58 C 61.552 58 62 57.552 62 57 C 62 56.448 61.552 56 61 56 L 58 56 L 58 33.5625 C 58.873 33.2215 59.692719 32.722344 60.386719 32.027344 L 60.669922 31.744141 C 62.193922 30.220141 62.568469 27.902609 61.605469 25.974609 L 56.429688 15.621094 C 57.359688 15.112094 58 14.134 58 13 C 58 11.346 56.654 10 55 10 L 24 10 L 24 6.0566406 C 24 5.5046406 23.552 5.0566406 23 5.0566406 C 22.448 5.0566406 22 5.5046406 22 6.0566406 L 22 10 L 20 10 L 20 1.0566406 C 20 0.50464062 19.552 0.056640625 19 0.056640625 z M 9 12 L 55 12 C 55.551 12 56 12.449 56 13 C 56 13.551 55.551 14 55 14 L 9 14 C 8.449 14 8 13.551 8 13 C 8 12.449 8.449 12 9 12 z M 9.6171875 16 L 16.988281 16 L 15.023438 24.839844 C 14.903438 25.378844 15.24225 25.913203 15.78125 26.033203 C 15.85425 26.049203 15.928 26.056641 16 26.056641 C 16.458 26.056641 16.871609 25.739438 16.974609 25.273438 L 18.974609 16.273438 C 18.995609 16.180438 18.986469 16.091 18.980469 16 L 45.017578 16 C 45.012578 16.091 45.001484 16.180438 45.021484 16.273438 L 47.021484 25.273438 C 47.125484 25.739438 47.538094 26.056641 47.996094 26.056641 C 48.068094 26.056641 48.141844 26.049203 48.214844 26.033203 C 48.753844 25.913203 49.094609 25.378844 48.974609 24.839844 L 47.011719 16 L 54.382812 16 L 59.816406 26.869141 C 60.395406 28.026141 60.168906 29.417031 59.253906 30.332031 L 58.972656 30.613281 C 57.224656 32.360281 54.4145 32.561125 52.4375 31.078125 L 49.800781 29.099609 C 48.741781 28.305609 47.259219 28.305609 46.199219 29.099609 L 43 31.5 C 41.233 32.824 38.767 32.824 37 31.5 L 33.800781 29.099609 C 33.553781 28.914609 33.282 28.776734 33 28.677734 L 33 20.056641 C 33 19.504641 32.552 19.056641 32 19.056641 C 31.448 19.056641 31 19.504641 31 20.056641 L 31 28.677734 C 30.718 28.776734 30.446219 28.914609 30.199219 29.099609 L 27 31.5 C 25.234 32.824 22.767 32.825 21 31.5 L 17.800781 29.099609 C 16.741781 28.305609 15.259219 28.305609 14.199219 29.099609 L 11.5625 31.078125 C 9.5855 32.561125 6.7763437 32.361281 5.0273438 30.613281 L 4.7441406 30.330078 C 3.8291406 29.415078 3.6055937 28.024187 4.1835938 26.867188 L 9.6171875 16 z M 16 30.501953 C 16.211625 30.502078 16.423109 30.567219 16.599609 30.699219 L 19.800781 33.101562 C 22.273781 34.955562 25.726219 34.954609 28.199219 33.099609 L 31.400391 30.699219 C 31.754391 30.435219 32.246609 30.434219 32.599609 30.699219 L 35.800781 33.099609 C 37.037781 34.027609 38.518 34.491234 40 34.490234 C 41.481 34.490234 42.963219 34.027609 44.199219 33.099609 L 47.400391 30.699219 C 47.754391 30.434219 48.246609 30.435219 48.599609 30.699219 L 51.236328 32.677734 C 52.640328 33.730734 54.343 34.173063 56 34.039062 L 56 47.974609 L 53 47.974609 C 52.448 47.974609 52 48.422609 52 48.974609 C 52 49.526609 52.448 49.974609 53 49.974609 L 56 49.974609 L 56 56 L 50 56 L 50 38 C 50 36.897 49.103 36 48 36 L 16 36 C 14.897 36 14 36.897 14 38 L 14 56 L 8 56 L 8 49.974609 L 11 49.974609 C 11.552 49.974609 12 49.526609 12 48.974609 C 12 48.422609 11.552 47.974609 11 47.974609 L 8 47.974609 L 8 34.037109 C 9.657 34.171109 11.359672 33.730734 12.763672 32.677734 L 15.400391 30.699219 C 15.577391 30.566719 15.788375 30.501828 16 30.501953 z M 15.998047 38 L 30 38 C 30 38.552 30.448 39 31 39 L 33 39 C 33.552 39 34 38.552 34 38 L 48 38 L 48 48 L 34 48 C 34 47.448 33.552 47 33 47 L 31 47 C 30.448 47 30 47.448 30 48 L 15.998047 48 L 15.998047 38 z M 31 42 C 30.448 42 30 42.448 30 43 C 30 43.552 30.448 44 31 44 L 33 44 C 33.552 44 34 43.552 34 43 C 34 42.448 33.552 42 33 42 L 31 42 z M 16 50 L 48 50 L 48 55.949219 L 16 55.949219 L 16 50 z"/>
</svg>
