<?xml version="1.0" encoding="UTF-8"?>
<svg xmlns="http://www.w3.org/2000/svg" xmlns:xlink="http://www.w3.org/1999/xlink" viewBox="0 0 50 50" version="1.1" fill="#000000"><g id="surface1" fill="#000000"><path style=" " d="M 44.46875 2.09375 C 44.242188 2.09375 44.003906 2.113281 43.78125 2.15625 C 42.910156 2.324219 42.085938 2.835938 41.5625 3.625 C 41.554688 3.636719 41.539063 3.644531 41.53125 3.65625 L 32.09375 18.15625 C 31.742188 18.066406 31.382813 18 31 18 C 30.828125 18 30.691406 18.042969 30.53125 18.0625 C 29.765625 16.277344 28.054688 15 26 15 C 23.972656 15 22.28125 16.253906 21.5 18 C 20.890625 18 20.335938 18.15625 19.78125 18.3125 C 19.054688 17.558594 18.125 17 17 17 C 16.496094 17 16.054688 17.175781 15.625 17.34375 C 15.113281 17.164063 14.582031 17 14 17 C 11.539063 17 9.59375 18.839844 9.1875 21.1875 C 6.839844 21.59375 5 23.539063 5 26 L 3 26 C 2.96875 26 2.9375 26 2.90625 26 C 2.390625 26.046875 1.996094 26.480469 2 27 L 2 30.625 C 2 35.492188 4.667969 39.832031 8.125 42.9375 C 11.582031 46.042969 15.859375 48 19.53125 48 L 30.46875 48 C 34.140625 48 38.417969 46.042969 41.875 42.9375 C 45.332031 39.832031 48 35.492188 48 30.625 L 48 27 C 48 26.449219 47.550781 26 47 26 L 45.84375 26 C 45.542969 25.011719 44.828125 24.214844 43.9375 23.6875 C 43.785156 21.8125 42.347656 20.335938 40.5 20.09375 C 40.15625 19.292969 39.664063 18.570313 39 18.03125 L 47.125 7.59375 C 48.308594 6.066406 47.984375 3.800781 46.40625 2.6875 C 45.8125 2.269531 45.144531 2.089844 44.46875 2.09375 Z M 44.4375 4.0625 C 44.71875 4.066406 45 4.167969 45.25 4.34375 C 45.917969 4.816406 46.035156 5.695313 45.53125 6.34375 L 33.4375 21.90625 C 33.0625 21.757813 32.929688 21.59375 32.25 21.59375 C 32.21875 21.59375 32.21875 21.59375 32.1875 21.59375 L 43.21875 4.71875 C 43.441406 4.375 43.792969 4.164063 44.15625 4.09375 C 44.246094 4.074219 44.34375 4.0625 44.4375 4.0625 Z M 26 17 C 27.453125 17 28.652344 18.019531 28.9375 19.375 L 29.15625 20.4375 L 30.1875 20.125 C 30.433594 20.054688 30.65625 20.011719 30.875 20 L 29.28125 22.46875 C 29.066406 22.824219 29.097656 23.277344 29.351563 23.601563 C 29.609375 23.925781 30.042969 24.0625 30.4375 23.9375 C 30.4375 23.9375 31.648438 23.59375 32.25 23.59375 C 32.851563 23.59375 33.34375 23.875 33.34375 23.875 C 33.773438 24.121094 34.320313 24.015625 34.625 23.625 L 37.75 19.59375 C 38.304688 19.996094 38.730469 20.566406 38.90625 21.25 L 39.09375 22.0625 L 39.90625 22 C 40.097656 21.992188 40.125 22 40 22 C 41.117188 22 42 22.882813 42 24 C 42 23.90625 41.980469 23.953125 41.96875 24.125 L 41.9375 24.875 L 42.65625 25.125 C 43.109375 25.28125 43.480469 25.601563 43.71875 26 L 27 26 C 27 25.449219 26.550781 25 26 25 C 25.449219 25 25 25.449219 25 26 L 7 26 C 7 24.332031 8.332031 23 10 23 L 11 23 L 11 22 C 11 20.332031 12.332031 19 14 19 C 14.429688 19 14.839844 19.082031 15.21875 19.25 L 15.65625 19.46875 L 16.09375 19.25 C 16.390625 19.097656 16.679688 19 17 19 C 17.710938 19 18.328125 19.351563 18.6875 19.90625 L 19.125 20.59375 L 19.875 20.3125 C 20.382813 20.117188 20.929688 20 21.5 20 C 21.667969 20 21.824219 20.011719 22 20.03125 L 22.875 20.125 L 23.09375 19.28125 C 23.417969 17.972656 24.585938 17 26 17 Z M 26 19 C 25.449219 19 25 19.449219 25 20 C 25 20.550781 25.449219 21 26 21 C 26.550781 21 27 20.550781 27 20 C 27 19.449219 26.550781 19 26 19 Z M 15 21 C 14.449219 21 14 21.449219 14 22 C 14 22.550781 14.449219 23 15 23 C 15.550781 23 16 22.550781 16 22 C 16 21.449219 15.550781 21 15 21 Z M 18 23 C 17.449219 23 17 23.449219 17 24 C 17 24.550781 17.449219 25 18 25 C 18.550781 25 19 24.550781 19 24 C 19 23.449219 18.550781 23 18 23 Z M 4 28 L 46 28 L 46 30.625 C 46 34.757813 43.710938 38.609375 40.5625 41.4375 C 37.414063 44.265625 33.398438 46 30.46875 46 L 19.53125 46 C 16.601563 46 12.585938 44.265625 9.4375 41.4375 C 6.289063 38.609375 4 34.757813 4 30.625 Z " fill="#000000"/></g></svg>
